<?xml version="1.0" standalone="no"?>
<!DOCTYPE svg PUBLIC "-//W3C//DTD SVG 20010904//EN"
 "http://www.w3.org/TR/2001/REC-SVG-20010904/DTD/svg10.dtd">
<svg version="1.0" xmlns="http://www.w3.org/2000/svg"
 width="48.000000pt" height="48.000000pt" viewBox="0 0 48.000000 48.000000"
 preserveAspectRatio="xMidYMid meet">

<g transform="translate(0.000000,48.000000) scale(0.100000,-0.100000)"
fill="#000000" stroke="none">
<path d="M95 451 c-11 -5 -31 -21 -45 -36 -24 -26 -25 -31 -25 -176 l0 -149
33 -32 32 -33 150 0 150 0 32 33 33 32 0 150 0 150 -33 32 -32 33 -138 2 c-75
1 -146 -1 -157 -6z m300 -56 c24 -23 25 -29 25 -155 0 -126 -1 -132 -25 -155
-23 -24 -29 -25 -155 -25 -126 0 -132 1 -155 25 -24 23 -25 29 -25 155 0 180
0 180 180 180 126 0 132 -1 155 -25z"/>
<path d="M334 359 c-10 -17 13 -36 27 -22 12 12 4 33 -11 33 -5 0 -12 -5 -16
-11z"/>
<path d="M191 326 c-59 -33 -67 -102 -17 -152 50 -50 121 -42 152 17 46 91
-47 184 -135 135z m91 -43 c10 -9 18 -27 18 -40 0 -28 -33 -63 -60 -63 -26 0
-60 34 -60 60 0 26 34 60 62 60 12 0 30 -7 40 -17z"/>
</g>
</svg>
