<?xml version="1.0" standalone="no"?>
<!DOCTYPE svg PUBLIC "-//W3C//DTD SVG 20010904//EN"
 "http://www.w3.org/TR/2001/REC-SVG-20010904/DTD/svg10.dtd">
<svg version="1.0" xmlns="http://www.w3.org/2000/svg"
 width="48.000000pt" height="48.000000pt" viewBox="0 0 48.000000 48.000000"
 preserveAspectRatio="xMidYMid meet">

<g transform="translate(0.000000,48.000000) scale(0.100000,-0.100000)"
fill="#000000" stroke="none">
<path d="M225 357 c-149 -60 -181 -76 -183 -94 -3 -18 4 -24 35 -32 21 -6 46
-11 55 -11 14 0 18 -12 20 -67 3 -57 6 -68 21 -71 11 -2 32 8 47 23 l29 28 42
-37 c47 -40 64 -44 77 -18 17 32 75 319 69 335 -4 10 -12 17 -19 16 -7 0 -94
-33 -193 -72z m153 -120 c-18 -75 -34 -137 -38 -137 -12 0 -139 115 -138 125
1 10 199 158 204 152 2 -1 -11 -64 -28 -140z m-78 109 c0 -2 -30 -26 -67 -52
-49 -35 -75 -47 -96 -46 -69 6 -59 18 45 59 105 42 118 46 118 39z m-98 -218
l-22 -22 0 44 0 44 22 -22 22 -22 -22 -22z"/>
</g>
</svg>
