<?xml version="1.0" standalone="no"?>
<!DOCTYPE svg PUBLIC "-//W3C//DTD SVG 20010904//EN"
 "http://www.w3.org/TR/2001/REC-SVG-20010904/DTD/svg10.dtd">
<svg version="1.0" xmlns="http://www.w3.org/2000/svg"
 width="48.000000pt" height="48.000000pt" viewBox="0 0 48.000000 48.000000"
 preserveAspectRatio="xMidYMid meet">

<g transform="translate(0.000000,48.000000) scale(0.100000,-0.100000)"
fill="#000000" stroke="none">
<path d="M230 307 c0 -145 -6 -162 -52 -155 -28 4 -37 48 -14 68 10 8 16 29
16 56 0 40 -2 44 -24 44 -50 0 -106 -69 -106 -132 0 -104 119 -172 207 -118
46 28 64 61 70 129 5 54 8 59 24 51 10 -6 31 -10 48 -10 30 0 31 2 31 43 0 40
-2 44 -42 62 -33 15 -46 28 -54 55 -11 33 -15 35 -58 38 l-46 3 0 -134z m87
76 c11 -23 33 -46 55 -58 27 -14 38 -27 38 -42 0 -27 -8 -28 -57 -8 -19 8 -39
15 -44 15 -5 0 -9 -33 -9 -74 0 -82 -16 -114 -69 -136 -99 -41 -199 77 -142
167 11 17 29 37 40 43 19 10 21 8 21 -20 0 -17 -7 -41 -15 -54 -21 -31 -5 -73
32 -87 22 -8 32 -6 52 9 25 19 26 23 29 151 3 131 3 131 26 131 18 0 29 -10
43 -37z"/>
</g>
</svg>
